<?xml version="1.0" encoding="utf-8"?>
<!-- Generator: Adobe Illustrator 23.0.4, SVG Export Plug-In . SVG Version: 6.00 Build 0)  -->
<svg version="1.1" id="Laag_1" focusable="false" xmlns="http://www.w3.org/2000/svg" xmlns:xlink="http://www.w3.org/1999/xlink"
	 x="0px" y="0px" viewBox="0 0 500 500" style="enable-background:new 0 0 500 500;" xml:space="preserve">
<style type="text/css">
	.st0{fill:#477CBD;}
	.st1{fill:#FEFEFE;}
	.st2{fill:#30B6A2;}
</style>
<g>
	<path class="st0" d="M439.5,500c-126.2,0-251.3,0-377.5,0c-5.8-0.8-2.2-0.4-2.8-0.5c-26.7-2.3-49.7-21.2-57.1-47
		C-0.2,446.6,0,441,0,443.7c0-106.7,0-213.1,0-319.8c0.1-2.5,0.6-4.8,1-7.2c4-28.6,29.5-52.8,58.1-55.1c8.6-0.7,17.3-0.3,25.9-0.4
		c2,0,2.5-0.6,2.5-2.5c-0.1-5.8-0.1-11.5,0-17.3c0.5-18.6,13.2-34.9,30.9-39.7c1.9-0.5,3.7-0.9,5.6-1.3c4.3-0.5,4-0.4,9.3,0.2
		c0,0,1,0.2,1.4,0.3c19.1,3.2,33.3,18.7,34.9,38c0.5,6.6,0.2,13.3,0.2,19.9c0,1.9,0.6,2.4,2.4,2.4c12.5-0.1,25-0.1,37.6,0
		c1.7,0,2.3-0.5,2.2-2.2c-0.1-5.5-0.1-11,0-16.5c0.3-20.3,13.6-36.7,33.2-41.3c0.7-0.2,0,0,3.9-0.8c2.1-0.2,2.1-0.2,5.8-0.2
		c2.8,0.2,4.1,0.6,4.4,0.6c18.8,3.4,32.3,17.5,34.7,36.5c0.9,7.1,0.3,14.2,0.4,21.3c0,1.8,0.3,2.6,2.4,2.6c12.5-0.1,25-0.1,37.6,0
		c1.9,0,2.4-0.6,2.4-2.4c-0.1-6-0.2-12.1,0-18.1c0.5-18.3,13.4-34.4,30.9-39c1.9-0.5,6.5-1.1,6.5-1.1l5.1,0c0.3,0.1,3.7,0.2,4.1,0.3
		C402.5,3,419.6,20.8,419,43.9c-0.1,4.9,0.1,9.8-0.1,14.6c-0.1,2,0.5,2.8,2.6,2.7c4.7-0.2,9.4-0.2,14,0
		c26.5,0.8,46.3,12.7,58.9,36.3c3.7,6.9,5.6,14.3,5.5,22.4c-0.3,26-0.1,52-0.1,78c0,80.2,0,160.3,0,240.5c0,2.4,0.2,4.8-0.2,7.2
		c-4.6,26.5-25.4,47.7-51.6,52.9C443.7,499.7,443.7,499.7,439.5,500z M250.1,157.5c-69.6,0-139.3,0-208.9,0c-2.1,0-3.2,0.2-3.2,2.9
		c0.1,90.8,0.1,181.7,0.1,272.5c0,16.8,11.5,28.3,28.1,28.3c122.6,0,245.1,0,367.7,0c1.8,0,3.7,0,5.5-0.3
		c13.8-2.5,22.7-13.5,22.7-27.9c0-90.6,0-181.1,0-271.7c0-4.2,0.4-3.7-3.7-3.7C389,157.5,319.6,157.5,250.1,157.5z M395.9,80.7
		c0-12,0-24,0-35.9c0-1.8-0.1-3.6-0.3-5.3c-1.2-8.4-7.8-14.9-16.2-15.9c-7.6-0.9-15.2,4.1-18.2,11.8c-1.1,2.9-1.4,6-1.4,9.1
		c0,24,0,47.9,0,71.9c0,1.8,0.1,3.6,0.4,5.3c1.2,8.1,7.6,14.5,15.5,15.6c7.7,1.1,15.1-3.3,18.5-10.9c1.4-3.1,1.8-6.3,1.8-9.6
		C395.9,104.8,395.9,92.7,395.9,80.7z M110.6,80.4c0,12.9-0.1,25.7,0,38.6c0.2,13.4,13.3,22.4,24.9,17c7.6-3.5,11-10,11.1-18.2
		c0.1-15.5,0-31.1,0-46.6c0-9.6,0.1-19.2,0-28.7c-0.2-11.8-9.8-20.4-20.8-18.7c-8.5,1.3-15,9.3-15.1,18.6
		C110.6,55,110.6,67.7,110.6,80.4z M271.2,80.4C271.1,80.4,271.1,80.4,271.2,80.4c0-13,0.1-26.1-0.1-39.1c-0.2-9.1-7.2-16.6-16-17.7
		c-8.4-1-16.3,4.5-18.9,13.3c-0.7,2.4-0.9,4.9-0.9,7.4c0,24.1,0,48.3,0,72.4c0,0.9,0,1.8,0.1,2.7c0.9,12.7,12.1,21.1,23.3,17.4
		c7.2-2.4,12.5-9.4,12.6-17.4C271.3,106.3,271.2,93.4,271.2,80.4z"/>
	<path class="st1" d="M250.1,157.5c69.4,0,138.9,0,208.3,0c4.1,0,3.7-0.5,3.7,3.7c0,90.6,0,181.1,0,271.7c0,14.4-8.9,25.4-22.7,27.9
		c-1.8,0.3-3.7,0.3-5.5,0.3c-122.6,0-245.1,0-367.7,0c-16.7,0-28.1-11.5-28.1-28.3c0-90.8,0-181.7-0.1-272.5c0-2.7,1.1-2.9,3.2-2.9
		C110.9,157.6,180.5,157.5,250.1,157.5z M202.7,256c11,0,22.1-0.1,33.1,0c2,0,2.5-0.6,2.5-2.5c-0.1-19.3-0.1-38.7,0-58
		c0-2.1-0.5-2.7-2.6-2.7c-22,0.1-43.9,0.1-65.9,0c-2.1,0-2.5,0.7-2.5,2.6c0.1,19.3,0.1,38.7,0,58c0,2.1,0.5,2.7,2.6,2.7
		C180.8,255.9,191.8,256,202.7,256z M297.3,256c11,0,22,0,33.1,0c1.9,0,2.6-0.3,2.6-2.4c-0.1-19.4-0.1-38.9,0-58.3
		c0-2-0.6-2.6-2.5-2.6c-22,0.1-43.9,0.1-65.9,0c-1.9,0-2.6,0.5-2.6,2.5c0.1,19.4,0.1,38.9,0,58.3c0,2,0.6,2.5,2.5,2.5
		C275.4,255.9,286.3,256,297.3,256z M392.1,192.8c-11,0-22,0-33.1,0c-1.9,0-2.6,0.4-2.6,2.5c0.1,19.4,0.1,38.9,0,58.3
		c0,2,0.6,2.5,2.5,2.5c22-0.1,43.9-0.1,65.9,0c1.9,0,2.6-0.3,2.6-2.4c-0.1-19.4-0.1-38.9,0-58.3c0-2.3-0.9-2.6-2.8-2.6
		C413.8,192.8,403,192.8,392.1,192.8z M108.1,340.2c11,0,22.1-0.1,33.1,0c2,0,2.5-0.6,2.5-2.5c-0.1-19.3-0.1-38.7,0-58
		c0-2.2-0.8-2.6-2.7-2.6c-21.9,0.1-43.8,0.1-65.6,0c-2.1,0-2.7,0.6-2.7,2.7c0.1,19.3,0.1,38.5,0,57.8c0,2.4,0.8,2.7,2.9,2.7
		C86.3,340.1,97.2,340.2,108.1,340.2z M202.6,340.2c11,0,22.1-0.1,33.1,0.1c2.1,0,2.6-0.6,2.6-2.7c-0.1-19.3-0.1-38.5,0-57.8
		c0-2-0.5-2.7-2.6-2.7c-22,0.1-43.9,0.1-65.9,0c-2,0-2.5,0.7-2.5,2.6c0.1,19.4,0.1,38.7,0,58.1c0,2.3,0.8,2.6,2.7,2.5
		C180.8,340.1,191.7,340.2,202.6,340.2z M297.3,340.2c10.9,0,21.9-0.1,32.8,0c2.2,0,2.8-0.6,2.8-2.8c-0.1-19.2-0.1-38.3,0-57.5
		c0-2.1-0.4-2.9-2.7-2.9c-21.9,0.1-43.8,0.1-65.6,0c-2.1,0-2.6,0.7-2.6,2.7c0.1,19.3,0.1,38.5,0,57.8c0,2.3,0.8,2.7,2.9,2.7
		C275.6,340.1,286.5,340.2,297.3,340.2z M391.8,277.1c-10.9,0-21.7,0.1-32.6,0c-2.1,0-2.9,0.5-2.9,2.8c0.1,19.3,0.1,38.5,0,57.8
		c0,2.1,0.6,2.6,2.7,2.6c21.9-0.1,43.8-0.1,65.6,0c2,0,2.7-0.4,2.7-2.6c-0.1-19.3-0.1-38.7,0-58c0-2-0.5-2.6-2.5-2.6
		C413.9,277.1,402.9,277.1,391.8,277.1z M108.3,424.3c10.9,0,21.9,0,32.8,0c2,0,2.5-0.5,2.5-2.5c-0.1-19.3-0.1-38.7,0-58
		c0-2.2-0.7-2.6-2.7-2.6c-21.9,0.1-43.7,0.1-65.6,0c-2.1,0-2.7,0.6-2.7,2.7c0.1,19.3,0.1,38.5,0,57.8c0,2.3,0.8,2.7,2.9,2.7
		C86.4,424.3,97.4,424.3,108.3,424.3z M202.5,424.3c11,0,22.1-0.1,33.1,0c2.1,0,2.7-0.6,2.6-2.7c-0.1-19.3-0.1-38.5,0-57.8
		c0-2-0.5-2.7-2.6-2.7c-22,0.1-43.9,0.1-65.9,0c-2,0-2.5,0.6-2.5,2.6c0.1,19.4,0.1,38.7,0,58.1c0,2.2,0.8,2.6,2.7,2.6
		C180.8,424.3,191.7,424.3,202.5,424.3z M297.2,424.3c11,0,22-0.1,33.1,0c2.1,0,2.7-0.6,2.6-2.7c-0.1-19.3-0.1-38.5,0-57.8
		c0-2-0.5-2.7-2.6-2.7c-22,0.1-43.9,0.1-65.9,0c-2,0-2.5,0.7-2.5,2.6c0.1,19.3,0.1,38.7,0,58c0,2.3,0.8,2.6,2.8,2.6
		C275.5,424.3,286.4,424.3,297.2,424.3z M391.7,424.3c11,0,22.1,0,33.1,0c1.8,0,2.6-0.3,2.6-2.4c-0.1-19.4-0.1-38.9,0-58.3
		c0-1.8-0.4-2.5-2.3-2.4c-22.1,0.1-44.1,0.1-66.2,0c-2,0-2.5,0.6-2.5,2.6c0.1,19.3,0.1,38.7,0,58c0,2,0.5,2.6,2.5,2.6
		C369.9,424.3,380.8,424.3,391.7,424.3z M101.2,238.4c0,5.1,0.1,10.1-0.1,15.2c-0.1,2.1,0.6,2.6,2.5,2.5c2.9-0.2,5.8-0.2,8.7,0
		c2.2,0.1,2.8-0.6,2.8-2.8c-0.1-9.8,0-19.5-0.1-29.3c0-2.3,0.4-3.3,3-3.1c4.2,0.2,8.5,0,12.7,0.1c1.7,0,2.4-0.4,2.3-2.2
		c-0.1-2.5-0.1-5,0-7.5c0.1-1.9-0.7-2.4-2.4-2.4c-4.4,0.1-8.8,0-13.2,0.1c-1.7,0-2.3-0.5-2.3-2.3c0.1-3.9,0-7.8,0.1-11.7
		c0-1.6-0.4-2.3-2.1-2.2c-3.3,0.1-6.5,0.1-9.8,0c-1.6,0-2.2,0.4-2.1,2.1c0.1,4,0,8,0.1,12c0,1.6-0.5,2.1-2.1,2.1
		c-4.5-0.1-9,0-13.5-0.1c-1.6,0-2.5,0.3-2.4,2.2c0.1,2.6,0.1,5.2,0,7.7c-0.1,1.7,0.6,2.1,2.2,2.1c4.5-0.1,9,0.1,13.5-0.1
		c1.9-0.1,2.4,0.6,2.3,2.4C101.1,228.3,101.2,233.3,101.2,238.4z"/>
	<path class="st1" d="M395.9,80.7c0,12.1,0,24.1,0,36.2c0,3.3-0.4,6.5-1.8,9.6c-3.4,7.6-10.8,11.9-18.5,10.9
		c-7.9-1.1-14.3-7.5-15.5-15.6c-0.3-1.8-0.4-3.5-0.4-5.3c0-24,0-47.9,0-71.9c0-3.1,0.3-6.2,1.4-9.1c3-7.8,10.6-12.7,18.2-11.8
		c8.3,0.9,15,7.5,16.2,15.9c0.2,1.8,0.3,3.5,0.3,5.3C395.9,56.7,395.9,68.7,395.9,80.7z"/>
	<path class="st1" d="M110.6,80.4c0-12.7-0.1-25.4,0-38.1c0.1-9.3,6.6-17.3,15.1-18.6c11-1.7,20.6,6.9,20.8,18.7
		c0.2,9.6,0,19.2,0,28.7c0,15.5,0.1,31.1,0,46.6c0,8.2-3.5,14.7-11.1,18.2c-11.6,5.4-24.7-3.6-24.9-17
		C110.5,106.1,110.6,93.2,110.6,80.4z"/>
	<path class="st1" d="M271.2,80.4c0,13,0.1,25.9,0,38.9c-0.1,7.9-5.4,15-12.6,17.4c-11.2,3.7-22.4-4.6-23.3-17.4
		c-0.1-0.9-0.1-1.8-0.1-2.7c0-24.1,0-48.3,0-72.4c0-2.5,0.2-5,0.9-7.4c2.6-8.8,10.6-14.3,18.9-13.3c8.8,1.1,15.9,8.6,16,17.7
		C271.3,54.3,271.1,67.4,271.2,80.4C271.1,80.4,271.1,80.4,271.2,80.4z"/>
	<path class="st0" d="M202.7,256c-10.9,0-21.9-0.1-32.8,0.1c-2.1,0-2.6-0.6-2.6-2.7c0.1-19.3,0.1-38.7,0-58c0-1.9,0.4-2.6,2.5-2.6
		c22,0.1,43.9,0.1,65.9,0c2.1,0,2.6,0.7,2.6,2.7c-0.1,19.3-0.1,38.7,0,58c0,2-0.5,2.6-2.5,2.5C224.7,255.9,213.7,256,202.7,256z"/>
	<path class="st0" d="M297.3,256c-10.9,0-21.9,0-32.8,0c-2,0-2.5-0.5-2.5-2.5c0.1-19.4,0.1-38.9,0-58.3c0-2.1,0.7-2.5,2.6-2.5
		c22,0.1,43.9,0.1,65.9,0c2,0,2.6,0.6,2.5,2.6c-0.1,19.4-0.1,38.9,0,58.3c0,2.1-0.7,2.5-2.6,2.4C319.3,256,308.3,256,297.3,256z"/>
	<path class="st0" d="M392.1,192.8c10.8,0,21.7,0,32.5,0c1.9,0,2.8,0.3,2.8,2.6c-0.1,19.4-0.1,38.9,0,58.3c0,2.1-0.7,2.4-2.6,2.4
		c-22-0.1-43.9-0.1-65.9,0c-2,0-2.5-0.5-2.5-2.5c0.1-19.4,0.1-38.9,0-58.3c0-2.1,0.7-2.5,2.6-2.5
		C370.1,192.8,381.1,192.8,392.1,192.8z"/>
	<path class="st0" d="M108.1,340.2c-10.9,0-21.7-0.1-32.6,0c-2.1,0-2.9-0.3-2.9-2.7c0.1-19.3,0.1-38.5,0-57.8c0-2.1,0.5-2.7,2.7-2.7
		c21.9,0.1,43.8,0.1,65.6,0c2,0,2.7,0.4,2.7,2.6c-0.1,19.3-0.1,38.7,0,58c0,2-0.5,2.6-2.5,2.5C130.1,340.1,119.1,340.2,108.1,340.2z
		"/>
	<path class="st0" d="M202.6,340.2c-10.9,0-21.7,0-32.6,0c-1.9,0-2.7-0.3-2.7-2.5c0.1-19.4,0.1-38.7,0-58.1c0-1.9,0.4-2.6,2.5-2.6
		c22,0.1,43.9,0.1,65.9,0c2.1,0,2.6,0.7,2.6,2.7c-0.1,19.3-0.1,38.5,0,57.8c0,2.1-0.5,2.7-2.6,2.7
		C224.6,340.1,213.6,340.2,202.6,340.2z"/>
	<path class="st0" d="M297.3,340.2c-10.8,0-21.7-0.1-32.5,0c-2.1,0-2.9-0.4-2.9-2.7c0.1-19.3,0.1-38.5,0-57.8c0-2.1,0.5-2.7,2.6-2.7
		c21.9,0.1,43.8,0.1,65.6,0c2.3,0,2.7,0.8,2.7,2.9c-0.1,19.2-0.1,38.3,0,57.5c0,2.2-0.6,2.8-2.8,2.8
		C319.2,340.1,308.3,340.2,297.3,340.2z"/>
	<path class="st0" d="M391.8,277.1c11,0,22.1,0,33.1,0c2,0,2.5,0.6,2.5,2.6c-0.1,19.3-0.1,38.7,0,58c0,2.2-0.7,2.6-2.7,2.6
		c-21.9-0.1-43.8-0.1-65.6,0c-2,0-2.7-0.5-2.7-2.6c0.1-19.3,0.1-38.5,0-57.8c0-2.3,0.7-2.8,2.9-2.8
		C370.1,277.1,381,277.1,391.8,277.1z"/>
	<path class="st0" d="M108.3,424.3c-10.9,0-21.9-0.1-32.8,0c-2.1,0-2.9-0.4-2.9-2.7c0.1-19.3,0.1-38.5,0-57.8c0-2.1,0.6-2.7,2.7-2.7
		c21.9,0.1,43.7,0.1,65.6,0c2,0,2.7,0.4,2.7,2.6c-0.1,19.3-0.1,38.7,0,58c0,2-0.5,2.5-2.5,2.5C130.2,424.3,119.2,424.3,108.3,424.3z
		"/>
	<path class="st0" d="M202.5,424.3c-10.9,0-21.7,0-32.6,0c-1.9,0-2.7-0.3-2.7-2.6c0.1-19.4,0.1-38.7,0-58.1c0-2,0.5-2.6,2.5-2.6
		c22,0.1,43.9,0.1,65.9,0c2.1,0,2.6,0.7,2.6,2.7c-0.1,19.3-0.1,38.5,0,57.8c0,2.1-0.6,2.7-2.6,2.7
		C224.6,424.3,213.6,424.3,202.5,424.3z"/>
	<path class="st0" d="M297.2,424.3c-10.8,0-21.7,0-32.5,0c-1.9,0-2.8-0.3-2.8-2.6c0.1-19.3,0.1-38.7,0-58c0-1.9,0.5-2.6,2.5-2.6
		c22,0.1,43.9,0.1,65.9,0c2.1,0,2.6,0.7,2.6,2.7c-0.1,19.3-0.1,38.5,0,57.8c0,2.1-0.5,2.7-2.6,2.7
		C319.3,424.3,308.3,424.3,297.2,424.3z"/>
	<path class="st2" d="M391.7,424.3c-10.9,0-21.9-0.1-32.8,0c-2,0-2.5-0.6-2.5-2.6c0.1-19.3,0.1-38.7,0-58c0-2,0.5-2.6,2.5-2.6
		c22.1,0.1,44.1,0.1,66.2,0c1.9,0,2.3,0.6,2.3,2.4c-0.1,19.4-0.1,38.9,0,58.3c0,2.1-0.8,2.4-2.6,2.4
		C413.8,424.3,402.8,424.3,391.7,424.3z"/>
	<path class="st0" d="M101.2,238.4c0-5.1-0.1-10.1,0-15.2c0-1.8-0.4-2.5-2.3-2.4c-4.5,0.1-9,0-13.5,0.1c-1.6,0-2.2-0.4-2.2-2.1
		c0.1-2.6,0.1-5.2,0-7.7c-0.1-1.9,0.7-2.2,2.4-2.2c4.5,0.1,9,0,13.5,0.1c1.6,0,2.2-0.5,2.1-2.1c-0.1-4,0-8-0.1-12
		c0-1.7,0.6-2.1,2.1-2.1c3.3,0.1,6.5,0.1,9.8,0c1.7-0.1,2.1,0.6,2.1,2.2c-0.1,3.9,0,7.8-0.1,11.7c0,1.7,0.5,2.3,2.3,2.3
		c4.4-0.1,8.8,0,13.2-0.1c1.8,0,2.6,0.4,2.4,2.4c-0.2,2.5-0.1,5,0,7.5c0.1,1.8-0.6,2.2-2.3,2.2c-4.2-0.1-8.5,0.1-12.7-0.1
		c-2.6-0.1-3,0.8-3,3.1c0.1,9.8,0,19.5,0.1,29.3c0,2.2-0.5,3-2.8,2.8c-2.9-0.2-5.8-0.2-8.7,0c-1.9,0.1-2.6-0.4-2.5-2.5
		C101.3,248.5,101.2,243.5,101.2,238.4z"/>
</g>
</svg>
